#!OML:ASF E:\Mandelcareful walks\Project 1\Capture day 1\Session 1\Subject1.ASF
:FULLY-SPECIFIED
:DEGREES
221
root 13.142 11.9609 -0.461477 -43.4073 -78.733 74.85
lowerback 35.7149 1.58543 8.87926
upperback 11.0527 3.76659 -0.426078
thorax -4.92544 1.56503 -6.33558
lowerneck -31.162 -14.7712 -11.9812
upperneck 21.0651 -18.6776 11.3494
head 14.6267 -7.43901 2.24258
rclavicle 1.59028e-014 -5.40694e-014
rhumerus 58.098 -22.522 -85.8025
rradius 30.7187
rwrist -29.8188
rhand -18.4851 -38.9108
rfingers 7.12502
rthumb 7.80217 -68.7469
lclavicle 1.59028e-014 -5.40694e-014
lhumerus -29.799 -35.0709 93.1687
lradius 54.8956
lwrist 34.4658
lhand -25.6317 -11.6344
lfingers 7.12502
lthumb 0.901466 18.3434
rfemur -99.3417 -37.3258 14.0004
rtibia 100.187
rfoot -24.5561 -0.343973
rtoes -11.8782
lfemur -95.8133 4.14881 -26.8354
ltibia 101.882
lfoot -31.7167 5.90716
ltoes -9.31
222
root 13.1251 12.0011 -0.48508 -45.0219 -78.9259 75.6338
lowerback 36.6924 1.49285 9.05372
upperback 11.1234 3.75222 -0.410776
thorax -5.17439 1.53314 -6.42057
lowerneck -30.9859 -14.6893 -12.1072
upperneck 21.0335 -18.5451 11.4267
head 14.5891 -7.3925 2.33265
rclavicle 1.145e-013 -2.54444e-014
rhumerus 57.4411 -22.0934 -85.0841
rradius 31.5903
rwrist -30.6453
rhand -18.6456 -38.9928
rfingers 7.12502
rthumb 7.64725 -68.8345
lclavicle 1.145e-013 -2.54444e-014
lhumerus -30.0548 -35.6637 93.2385
lradius 54.8838
lwrist 35.1578
lhand -25.1501 -11.7261
lfingers 7.12502
lthumb 1.36664 18.2493
rfemur -97.8069 -36.9515 13.497
rtibia 100.042
rfoot -24.9246 -0.181455
rtoes -11.9106
lfemur -94.4362 4.48827 -26.5056
ltibia 101.681
lfoot -32.0631 5.77983
ltoes -8.99678
223
root 13.1193 12.0094 -0.511065 -46.5409 -79.0238 77.1098
lowerback 36.7105 1.58533 8.91012
upperback 11.1436 3.81184 -0.385597
thorax -5.16284 1.55687 -6.33953
lowerneck -31.0356 -14.5392 -12.0794
upperneck 21.1345 -18.2785 11.2037
head 14.5719 -7.30472 2.30922
rclavicle 4.45278e-014 3.97569e-015
rhumerus 56.9927 -21.7949 -84.6746
rradius 32.2323
rwrist -31.0453
rhand -18.0744 -39.2776
rfingers 7.12502
rthumb 8.1985 -69.0986
lclavicle 4.45278e-014 3.97569e-015
lhumerus -30.5641 -36.3275 93.4907
lradius 54.9296
lwrist 35.7696
lhand -24.9808 -12.8495
lfingers 7.12502
lthumb 1.53012 17.1248
rfemur -97.7514 -36.542 13.4342
rtibia 100.073
rfoot -25.05 0.140396
rtoes -11.5323
lfemur -94.2934 4.75459 -26.4047
ltibia 101.623
lfoot -32.1284 5.85594
ltoes -9.38372
224
root 13.1133 12.0084 -0.535327 -48.0006 -79.1119 78.7103
lowerback 36.4714 1.69651 8.74445
upperback 11.1171 3.8799 -0.372694
thorax -5.11494 1.58984 -6.25969
lowerneck -31.3236 -14.2129 -11.6606
upperneck 21.6439 -17.7438 10.2896
head 14.6057 -7.14641 2.01707
rclavicle -1.08139e-013 4.6118e-014
rhumerus 56.7117 -21.5379 -84.5978
rradius 32.4982
rwrist -31.1007
rhand -17.6082 -39.4034
rfingers 7.12502
rthumb 8.64846 -69.2062
lclavicle -1.08139e-013 4.6118e-014
lhumerus -31.5888 -36.9513 93.9179
lradius 55.2529
lwrist 36.2843
lhand -24.6417 -13.5862
lfingers 7.12502
lthumb 1.85764 16.3854
rfemur -98.0664 -36.1866 13.5459
rtibia 100.121
rfoot -25.1053 0.185274
rtoes -11.5004
lfemur -94.4737 5.00826 -26.3844
ltibia 101.601
lfoot -32.0376 6.15245
ltoes -10.5174
225
root 13.1067 12.0122 -0.55248 -48.9734 -79.1206 79.649
lowerback 36.4033 1.68239 8.76231
upperback 11.0635 3.87333 -0.351434
thorax -5.15098 1.58407 -6.24456
lowerneck -31.698 -13.6946 -11.1552
upperneck 22.4758 -16.9132 9.09241
head 14.7284 -6.88754 1.6666
rclavicle -3.81667e-014 5.08889e-014
rhumerus 56.4955 -21.2219 -84.4063
rradius 32.3824
rwrist -31.1743
rhand -17.5772 -39.4214
rfingers 7.12502
rthumb 8.67836 -69.223
lclavicle -3.81667e-014 5.08889e-014
lhumerus -32.9899 -37.6581 94.6055
lradius 55.5499
lwrist 37.1141
lhand -24.1243 -13.633
lfingers 7.12502
lthumb 2.35736 16.3338
rfemur -98.0819 -36.0849 13.5916
rtibia 100.152
rfoot -25.2397 0.186926
rtoes -11.934
lfemur -94.3738 5.08777 -26.3364
ltibia 101.59
lfoot -32.0353 6.31743
ltoes -11.1358
226
root 13.1011 12.0126 -0.564606 -49.7485 -79.1027 80.4035
lowerback 36.2956 1.64906 8.86225
upperback 11.0403 3.8669 -0.29146
thorax -5.13456 1.58161 -6.22821
lowerneck -32.3634 -13.0693 -10.7897
upperneck 23.4812 -15.8259 7.85632
head 14.9866 -6.53209 1.36285
rclavicle 2.54444e-014 2.62396e-014
rhumerus 56.5916 -20.9602 -84.3831
rradius 31.84
rwrist -30.7747
rhand -17.539 -39.2401
rfingers 7.12502
rthumb 8.71524 -69.0401
lclavicle 2.54444e-014 2.62396e-014
lhumerus -34.3435 -38.1739 95.3369
lradius 55.8111
lwrist 38.1178
lhand -23.1948 -12.9451
lfingers 7.12502
lthumb 3.25493 17.0098
rfemur -98.1766 -36.0642 13.6621
rtibia 100.178
rfoot -25.2726 0.219565
rtoes -12.2224
lfemur -94.2405 5.10894 -26.2682
ltibia 101.562
lfoot -32.1483 6.19969
ltoes -10.8441
227
root 13.0902 12.0227 -0.576206 -51.1812 -79.1353 81.6547
lowerback 36.3683 1.6355 8.97688
upperback 11.085 3.88277 -0.279147
thorax -5.0985 1.59007 -6.27873
lowerneck -33.0892 -12.2929 -10.3142
upperneck 24.3755 -14.5125 6.54297
head 15.1965 -6.10042 1.05558
rclavicle 6.99722e-014 -4.69132e-014
rhumerus 57.0184 -20.7551 -84.7437
rradius 31.0835
rwrist -29.9797
rhand -17.4651 -38.7578
rfingers 7.12502
rthumb 8.78656 -68.5549
lclavicle 6.99722e-014 -4.69132e-014
lhumerus -35.7869 -38.3952 95.9108
lradius 56.3681
lwrist 39.2557
lhand -21.7888 -11.2595
lfingers 7.12502
lthumb 4.61268 18.6703
rfemur -97.9594 -35.922 13.6047
rtibia 100.147
rfoot -25.3137 0.251272
rtoes -12.1029
lfemur -93.7977 5.27448 -26.2073
ltibia 101.484
lfoot -32.3708 6.05614
ltoes -10.3915
228
root 13.0775 12.0591 -0.589234 -53.4918 -79.1266 83.3284
lowerback 37.0136 1.60658 9.0477
upperback 11.1428 3.89398 -0.284609
thorax -5.24729 1.57893 -6.3352
lowerneck -33.632 -11.3345 -9.62388
upperneck 25.357 -12.9611 4.92475
head 15.3821 -5.61555 0.64147
rclavicle -2.8625e-014 1.66979e-014
rhumerus 56.8774 -20.5364 -84.847
rradius 30.797
rwrist -29.3196
rhand -17.46 -38.5375
rfingers 7.12502
rthumb 8.79142 -68.3344
lclavicle -2.8625e-014 1.66979e-014
lhumerus -37.9307 -39.1416 96.9872
lradius 56.4597
lwrist 41.0848
lhand -21.256 -12.9478
lfingers 7.12502
lthumb 5.12718 16.9701
rfemur -96.8758 -35.6845 13.1191
rtibia 99.9707
rfoot -25.4505 0.331763
rtoes -11.9732
lfemur -92.7033 5.51189 -26.1988
ltibia 101.294
lfoot -32.5889 6.20879
ltoes -10.7101
229
root 13.075 12.0463 -0.597821 -54.1667 -79.0813 84.31
lowerback 36.35 1.66607 9.13343
upperback 11.1222 3.96253 -0.244778
thorax -5.02688 1.63111 -6.34681
lowerneck -33.9282 -10.4266 -9.17201
upperneck 26.3934 -11.4816 3.60539
head 15.6494 -5.15471 0.359264
rclavicle 9.54166e-015 -3.10104e-014
rhumerus 56.8234 -20.4527 -84.8536
rradius 30.2427
rwrist -28.3102
rhand -16.91 -38.2042
rfingers 7.12502
rthumb 9.32216 -67.978
lclavicle 9.54166e-015 -3.10104e-014
lhumerus -40.3157 -39.8458 98.2184
lradius 56.6819
lwrist 43.4367
lhand -20.0975 -12.7157
lfingers 7.12502
lthumb 6.2457 17.1722
rfemur -97.5232 -35.6599 13.3514
rtibia 100.055
rfoot -25.3168 0.432035
rtoes -12.0433
lfemur -93.202 5.54027 -26.2556
ltibia 101.384
lfoot -32.461 6.39606
ltoes -10.982
230
root 13.0675 12.0423 -0.60964 -55.0585 -79.1529 85.1988
lowerback 36.0764 1.74672 9.32399
upperback 11.2014 4.09666 -0.185346
thorax -4.81023 1.7102 -6.41603
lowerneck -34.2171 -9.62913 -8.91128
upperneck 27.1909 -10.1648 2.68807
head 15.8991 -4.72923 0.228355
rclavicle -5.725e-014 -7.95139e-015
rhumerus 56.5576 -20.0243 -84.1259
rradius 30.4175
rwrist -29.1773
rhand -17.741 -38.5479
rfingers 7.12502
rthumb 8.52025 -68.356
lclavicle -5.725e-014 -7.95139e-015
lhumerus -42.861 -40.4086 99.6223
lradius 56.9418
lwrist 45.0185
lhand -19.6492 -11.8401
lfingers 7.12502
lthumb 6.67844 18.0346
rfemur -97.6441 -35.5297 13.4744
rtibia 100.117
rfoot -25.3957 0.57166
rtoes -12.0618
lfemur -93.1693 5.77722 -26.1849
ltibia 101.428
lfoot -32.555 6.11681
ltoes -10.3614
